<svg width="180" height="104" xmlns="http://www.w3.org/2000/svg" xmlns:xlink="http://www.w3.org/1999/xlink" overflow="hidden"><defs><clipPath id="clip0"><rect x="1010" y="443" width="180" height="104"/></clipPath></defs><g clip-path="url(#clip0)" transform="translate(-1010 -443)"><path d="M1012 457.5C1012 450.596 1017.6 445 1024.5 445L1041.17 445 1041.17 445 1084.92 445 1174.5 445C1181.4 445 1187 450.596 1187 457.5L1187 488.75 1187 488.75 1187 507.5 1187 507.5C1187 514.404 1181.4 520 1174.5 520L1084.92 520 1019.52 541.131 1041.17 520 1024.5 520C1017.6 520 1012 514.404 1012 507.5L1012 507.5 1012 488.75 1012 488.75Z" stroke="#45464C" stroke-width="4" stroke-miterlimit="8" fill="none" fill-rule="evenodd"/></g></svg>