<svg width="180" height="104" xmlns="http://www.w3.org/2000/svg" xmlns:xlink="http://www.w3.org/1999/xlink" overflow="hidden"><defs><filter id="fx0" x="-10%" y="-10%" width="120%" height="120%" filterUnits="userSpaceOnUse" primitiveUnits="userSpaceOnUse"><feComponentTransfer color-interpolation-filters="sRGB"><feFuncR type="discrete" tableValues="0 0"/><feFuncG type="discrete" tableValues="0 0"/><feFuncB type="discrete" tableValues="0 0"/><feFuncA type="linear" slope="0.4" intercept="0"/></feComponentTransfer><feGaussianBlur stdDeviation="1.77778 1.77778"/></filter><clipPath id="clip1"><rect x="1020" y="449" width="180" height="104"/></clipPath><clipPath id="clip2"><rect x="-2" y="-2" width="184" height="110"/></clipPath><clipPath id="clip3"><rect x="0" y="0" width="181" height="106"/></clipPath></defs><g clip-path="url(#clip1)" transform="translate(-1020 -449)"><g clip-path="url(#clip2)" filter="url(#fx0)" transform="translate(1020 448)"><g clip-path="url(#clip3)"><path d="M6.82837 18.8287C6.82837 12.2011 12.2011 6.82843 18.8287 6.82843L34.6617 6.82843 34.6617 6.82843 76.4117 6.82843 161.828 6.82843C168.456 6.82843 173.828 12.2011 173.828 18.8287L173.828 48.8285 173.828 48.8285 173.828 66.8285 173.828 66.8281C173.828 73.4557 168.456 78.8284 161.828 78.8284L76.4117 78.8284 14.0044 99.1144 34.6617 78.8284 18.8287 78.8284C12.2011 78.8284 6.82837 73.4557 6.82837 66.8281L6.82837 66.8285 6.82837 48.8285 6.82837 48.8285Z" fill="#FECC99" fill-rule="evenodd"/></g></g><path d="M1024 464C1024 457.373 1029.37 452 1036 452L1051.83 452 1051.83 452 1093.58 452 1179 452C1185.63 452 1191 457.373 1191 464L1191 494 1191 494 1191 512 1191 512C1191 518.627 1185.63 524 1179 524L1093.58 524 1031.18 544.286 1051.83 524 1036 524C1029.37 524 1024 518.627 1024 512L1024 512 1024 494 1024 494Z" fill="#FECC99" fill-rule="evenodd"/></g></svg>